<mxfile host="app.diagrams.net" modified="2022-06-20T23:19:19.440Z" agent="5.0 (Windows NT 10.0; Win64; x64) AppleWebKit/537.36 (KHTML, like Gecko) Chrome/102.0.0.0 Safari/537.36" etag="l5jo52_5LG5rrdF7J_7I" version="20.0.1" type="github">
  <diagram name="Page-1" id="edf60f1a-56cd-e834-aa8a-f176f3a09ee4">
    <mxGraphModel dx="1422" dy="754" grid="1" gridSize="10" guides="1" tooltips="1" connect="1" arrows="1" fold="1" page="1" pageScale="1" pageWidth="1100" pageHeight="850" background="none" math="0" shadow="0">
      <root>
        <mxCell id="0" />
        <mxCell id="1" parent="0" />
        <mxCell id="yjrk4O-F8HFpyaBp3TZh-5" value="" style="edgeStyle=orthogonalEdgeStyle;rounded=0;orthogonalLoop=1;jettySize=auto;html=1;" edge="1" parent="1" source="yjrk4O-F8HFpyaBp3TZh-1" target="yjrk4O-F8HFpyaBp3TZh-4">
          <mxGeometry relative="1" as="geometry" />
        </mxCell>
        <mxCell id="yjrk4O-F8HFpyaBp3TZh-1" value="&lt;font style=&quot;font-size: 15px;&quot;&gt;IMU센서를 이용한 서보모터 &lt;br&gt;제어 순서도&lt;/font&gt;" style="strokeWidth=2;html=1;shape=mxgraph.flowchart.terminator;whiteSpace=wrap;" vertex="1" parent="1">
          <mxGeometry x="100" y="40" width="240" height="50" as="geometry" />
        </mxCell>
        <mxCell id="yjrk4O-F8HFpyaBp3TZh-8" value="" style="edgeStyle=orthogonalEdgeStyle;rounded=0;orthogonalLoop=1;jettySize=auto;html=1;fontSize=15;" edge="1" parent="1" source="yjrk4O-F8HFpyaBp3TZh-4">
          <mxGeometry relative="1" as="geometry">
            <mxPoint x="220" y="200" as="targetPoint" />
          </mxGeometry>
        </mxCell>
        <mxCell id="yjrk4O-F8HFpyaBp3TZh-4" value="&lt;font style=&quot;font-size: 15px;&quot;&gt;시작&lt;/font&gt;" style="strokeWidth=2;html=1;shape=mxgraph.flowchart.start_1;whiteSpace=wrap;" vertex="1" parent="1">
          <mxGeometry x="120" y="120" width="200" height="40" as="geometry" />
        </mxCell>
        <mxCell id="yjrk4O-F8HFpyaBp3TZh-10" value="" style="edgeStyle=orthogonalEdgeStyle;rounded=0;orthogonalLoop=1;jettySize=auto;html=1;fontSize=15;" edge="1" parent="1">
          <mxGeometry relative="1" as="geometry">
            <mxPoint x="220" y="240" as="sourcePoint" />
            <mxPoint x="220" y="280" as="targetPoint" />
          </mxGeometry>
        </mxCell>
        <mxCell id="yjrk4O-F8HFpyaBp3TZh-11" value="publish" style="text;html=1;align=center;verticalAlign=middle;resizable=0;points=[];autosize=1;strokeColor=none;fillColor=none;fontSize=15;" vertex="1" parent="1">
          <mxGeometry x="245" y="250" width="60" height="20" as="geometry" />
        </mxCell>
        <mxCell id="yjrk4O-F8HFpyaBp3TZh-13" value="자이로 센서값 입력" style="shape=parallelogram;perimeter=parallelogramPerimeter;whiteSpace=wrap;html=1;fixedSize=1;fontSize=15;" vertex="1" parent="1">
          <mxGeometry x="120" y="200" width="200" height="40" as="geometry" />
        </mxCell>
        <mxCell id="yjrk4O-F8HFpyaBp3TZh-15" value="mqtt broker" style="ellipse;shape=cloud;whiteSpace=wrap;html=1;fontSize=15;" vertex="1" parent="1">
          <mxGeometry x="127" y="280" width="210" height="60" as="geometry" />
        </mxCell>
        <mxCell id="yjrk4O-F8HFpyaBp3TZh-18" value="rapa" style="swimlane;horizontal=0;fontSize=15;" vertex="1" parent="1">
          <mxGeometry x="100" y="370" width="460" height="360" as="geometry" />
        </mxCell>
        <mxCell id="yjrk4O-F8HFpyaBp3TZh-26" value="" style="edgeStyle=orthogonalEdgeStyle;rounded=0;orthogonalLoop=1;jettySize=auto;html=1;fontSize=15;" edge="1" parent="yjrk4O-F8HFpyaBp3TZh-18" source="yjrk4O-F8HFpyaBp3TZh-22" target="yjrk4O-F8HFpyaBp3TZh-25">
          <mxGeometry relative="1" as="geometry" />
        </mxCell>
        <mxCell id="yjrk4O-F8HFpyaBp3TZh-28" value="" style="edgeStyle=orthogonalEdgeStyle;rounded=0;orthogonalLoop=1;jettySize=auto;html=1;fontSize=15;" edge="1" parent="yjrk4O-F8HFpyaBp3TZh-18" source="yjrk4O-F8HFpyaBp3TZh-22" target="yjrk4O-F8HFpyaBp3TZh-27">
          <mxGeometry relative="1" as="geometry" />
        </mxCell>
        <mxCell id="yjrk4O-F8HFpyaBp3TZh-22" value="센서값이 음수인지 &lt;br&gt;양수인지 판단" style="html=1;whiteSpace=wrap;aspect=fixed;shape=isoRectangle;fontSize=15;" vertex="1" parent="yjrk4O-F8HFpyaBp3TZh-18">
          <mxGeometry x="40" y="10" width="183.33" height="110" as="geometry" />
        </mxCell>
        <mxCell id="yjrk4O-F8HFpyaBp3TZh-25" value="홀수입니다" style="shape=display;whiteSpace=wrap;html=1;fontSize=15;" vertex="1" parent="yjrk4O-F8HFpyaBp3TZh-18">
          <mxGeometry x="300" y="42.5" width="130" height="45" as="geometry" />
        </mxCell>
        <mxCell id="yjrk4O-F8HFpyaBp3TZh-32" value="" style="edgeStyle=orthogonalEdgeStyle;rounded=0;orthogonalLoop=1;jettySize=auto;html=1;fontSize=15;" edge="1" parent="yjrk4O-F8HFpyaBp3TZh-18" source="yjrk4O-F8HFpyaBp3TZh-27" target="yjrk4O-F8HFpyaBp3TZh-31">
          <mxGeometry relative="1" as="geometry" />
        </mxCell>
        <mxCell id="yjrk4O-F8HFpyaBp3TZh-27" value="짝수입니다" style="shape=display;whiteSpace=wrap;html=1;fontSize=15;" vertex="1" parent="yjrk4O-F8HFpyaBp3TZh-18">
          <mxGeometry x="66.66" y="170" width="130" height="45" as="geometry" />
        </mxCell>
        <mxCell id="yjrk4O-F8HFpyaBp3TZh-31" value="각의 크기 += 10" style="whiteSpace=wrap;html=1;fontSize=15;" vertex="1" parent="yjrk4O-F8HFpyaBp3TZh-18">
          <mxGeometry x="70" y="270" width="121.66" height="60" as="geometry" />
        </mxCell>
        <mxCell id="yjrk4O-F8HFpyaBp3TZh-21" value="subscribe" style="text;html=1;align=center;verticalAlign=middle;resizable=0;points=[];autosize=1;strokeColor=none;fillColor=none;fontSize=15;" vertex="1" parent="1">
          <mxGeometry x="231" y="340" width="80" height="20" as="geometry" />
        </mxCell>
        <mxCell id="yjrk4O-F8HFpyaBp3TZh-24" value="" style="edgeStyle=orthogonalEdgeStyle;rounded=0;orthogonalLoop=1;jettySize=auto;html=1;fontSize=15;" edge="1" parent="1" source="yjrk4O-F8HFpyaBp3TZh-22" target="yjrk4O-F8HFpyaBp3TZh-15">
          <mxGeometry relative="1" as="geometry" />
        </mxCell>
        <mxCell id="yjrk4O-F8HFpyaBp3TZh-38" style="edgeStyle=orthogonalEdgeStyle;rounded=0;orthogonalLoop=1;jettySize=auto;html=1;exitX=0.5;exitY=1;exitDx=0;exitDy=0;fontSize=15;" edge="1" parent="1" source="yjrk4O-F8HFpyaBp3TZh-29">
          <mxGeometry relative="1" as="geometry">
            <mxPoint x="465" y="670" as="targetPoint" />
          </mxGeometry>
        </mxCell>
        <mxCell id="yjrk4O-F8HFpyaBp3TZh-29" value="각의 크기 -= 10" style="whiteSpace=wrap;html=1;fontSize=15;" vertex="1" parent="1">
          <mxGeometry x="405" y="530" width="120" height="60" as="geometry" />
        </mxCell>
        <mxCell id="yjrk4O-F8HFpyaBp3TZh-30" value="" style="edgeStyle=orthogonalEdgeStyle;rounded=0;orthogonalLoop=1;jettySize=auto;html=1;fontSize=15;" edge="1" parent="1" source="yjrk4O-F8HFpyaBp3TZh-25" target="yjrk4O-F8HFpyaBp3TZh-29">
          <mxGeometry relative="1" as="geometry" />
        </mxCell>
        <mxCell id="yjrk4O-F8HFpyaBp3TZh-36" value="arduino uno" style="swimlane;fontSize=15;" vertex="1" parent="1">
          <mxGeometry x="620" y="470" width="200" height="200" as="geometry" />
        </mxCell>
        <mxCell id="yjrk4O-F8HFpyaBp3TZh-39" value="서보모터 제어" style="rounded=0;whiteSpace=wrap;html=1;fontSize=15;" vertex="1" parent="yjrk4O-F8HFpyaBp3TZh-36">
          <mxGeometry x="10" y="40" width="120" height="60" as="geometry" />
        </mxCell>
        <mxCell id="yjrk4O-F8HFpyaBp3TZh-37" style="edgeStyle=orthogonalEdgeStyle;rounded=0;orthogonalLoop=1;jettySize=auto;html=1;exitX=1;exitY=0.5;exitDx=0;exitDy=0;entryX=0;entryY=0.5;entryDx=0;entryDy=0;fontSize=15;" edge="1" parent="1" source="yjrk4O-F8HFpyaBp3TZh-31" target="yjrk4O-F8HFpyaBp3TZh-36">
          <mxGeometry relative="1" as="geometry">
            <Array as="points">
              <mxPoint x="590" y="670" />
              <mxPoint x="590" y="570" />
            </Array>
          </mxGeometry>
        </mxCell>
      </root>
    </mxGraphModel>
  </diagram>
</mxfile>
